<?xml version="1.0" standalone="no"?>
<!DOCTYPE svg PUBLIC "-//W3C//DTD SVG 20010904//EN"
 "http://www.w3.org/TR/2001/REC-SVG-20010904/DTD/svg10.dtd">
<svg version="1.0" xmlns="http://www.w3.org/2000/svg"
 width="700.000000pt" height="700.000000pt" viewBox="0 0 700.000000 700.000000"
 preserveAspectRatio="xMidYMid meet">
<metadata>
Created by potrace 1.11, written by Peter Selinger 2001-2013
</metadata>
<g transform="translate(0.000000,700.000000) scale(0.100000,-0.100000)"
fill="#000000" stroke="none">
<path d="M3290 6994 c-19 -2 -87 -9 -150 -15 -656 -62 -1295 -325 -1840 -758
-129 -102 -427 -402 -533 -536 -413 -521 -662 -1120 -744 -1785 -24 -200 -24
-600 0 -800 82 -665 331 -1264 744 -1785 106 -134 404 -434 533 -536 547 -434
1152 -684 1845 -761 154 -17 556 -17 710 0 693 77 1298 327 1845 761 129 102
427 402 533 536 413 521 662 1120 744 1785 24 200 24 600 0 800 -82 665 -331
1264 -744 1785 -106 134 -404 434 -533 536 -534 424 -1126 673 -1795 755 -122
14 -538 27 -615 18z m-505 -1829 c248 -36 481 -143 649 -296 30 -27 59 -49 66
-49 7 0 36 22 66 49 168 153 401 260 649 296 396 58 801 -83 1080 -376 158
-165 246 -331 302 -569 26 -113 24 -371 -5 -506 -43 -201 -127 -402 -240 -573
-175 -267 -608 -777 -913 -1077 -324 -318 -573 -493 -794 -560 -274 -82 -603
88 -1084 560 -305 300 -738 810 -913 1077 -113 171 -197 372 -240 573 -29 135
-31 393 -5 506 56 238 144 404 302 569 279 293 684 434 1080 376z"/>
</g>
</svg>
